<svg id="Layer_1" data-name="Layer 1" xmlns="http://www.w3.org/2000/svg" viewBox="0 0 367.19 96.48"><defs><style>.cls-1{fill:#0d1117;}.cls-2,.cls-3{fill:none;stroke:#fff;stroke-linecap:round;stroke-linejoin:round;}.cls-2{stroke-width:3.6px;}.cls-3{stroke-width:3.6px;}.cls-4{isolation:isolate;}.cls-5{fill:#fff;}</style></defs><path class="cls-1" d="M48.24,96.48a13.72,13.72,0,0,1-9.76-4L4,58A13.8,13.8,0,0,1,4,38.48H4L38.48,4a13.72,13.72,0,0,1,9.76-4H59.77a13.72,13.72,0,0,1,9.76,4L104,38.48A13.8,13.8,0,0,1,104,58h0L69.53,92.44a13.72,13.72,0,0,1-9.76,4Z"/><path class="cls-1" d="M117.51,87.26a14,14,0,0,1-14-14V24.56a14.17,14.17,0,0,1,14-14.17c3.39-.07,8.34-.15,10.84-.15,22.64,0,30.68,15,30.68,27.82S150.39,64.55,131.61,66v7.25A14.06,14.06,0,0,1,117.51,87.26Z"/><path class="cls-1" d="M147,38.06c0,8.18-5.63,16-18.68,16-2.47,0-5.7-.07-8.7-.3V73.24a2.06,2.06,0,1,1-4.12,0h0V24.56a2.17,2.17,0,0,1,2.17-2.17c3.38-.08,8.25-.15,10.65-.15C142.86,22.24,147,30.26,147,38.06ZM119.61,49.84c2.93.22,5.55.37,8.55.37,9.53,0,14.48-5,14.48-12.22,0-6.83-4-11.85-13.95-11.85-2.33,0-6.6.07-9.08.15Z"/><path class="cls-1" d="M193.64,87.26A14,14,0,0,1,180.87,79l-4.29-10h-9.39L162.9,79a13.92,13.92,0,0,1-26.64-5.7,14.27,14.27,0,0,1,.77-4.53l.17-.53,21.67-49.47A14.4,14.4,0,0,1,172,10.09a14.25,14.25,0,0,1,13.14,8.63l21.62,49.46.18.51a14.67,14.67,0,0,1,.76,4.55,14,14,0,0,1-14,14Z"/><path class="cls-1" d="M159.29,57l-7.35,17.1a1.9,1.9,0,0,1-1.73,1.12,1.94,1.94,0,0,1-2-1.88v-.12a3.12,3.12,0,0,1,.15-.75l21.45-49a2.28,2.28,0,0,1,4.28,0l21.37,48.9a2.38,2.38,0,0,1,.15.75,2.12,2.12,0,0,1-2,2,1.92,1.92,0,0,1-1.8-1.12l-7.32-17Zm1.65-3.9h21.9l-11-25.35Z"/><path class="cls-1" d="M208.19,86.89A14.2,14.2,0,0,1,194,72.71V24.19a14.07,14.07,0,0,1,28.13,0V59h13.8a14,14,0,0,1,0,27.9Z"/><path class="cls-1" d="M235.94,71a1.89,1.89,0,0,1,1.87,1.91V73A1.86,1.86,0,0,1,236,74.88H208.19A2.19,2.19,0,0,1,206,72.71V24.19a2,2,0,0,1,2-2h.19a2,2,0,0,1,1.95,2V71Z"/><path class="cls-1" d="M266.84,87.56c-21.85,0-38.33-16.73-38.33-38.92,0-21.83,16.84-38.93,38.33-38.93,21.84,0,38.32,16.74,38.32,38.93C305.16,70.46,288.33,87.56,266.84,87.56Z"/><path class="cls-1" d="M266.84,21.71c14.92,0,26.32,11.25,26.32,26.93,0,15.45-11.4,26.92-26.32,26.92s-26.33-11.25-26.33-26.92C240.51,33.41,251.69,21.71,266.84,21.71Zm0,49.95c12.82,0,22-10,22-23,0-13.28-9.6-23-22-23s-22,9.75-22,23S254.46,71.66,266.84,71.66Z"/><path class="cls-1" d="M353.09,87.26a14,14,0,0,1-14-14V65.45a13.55,13.55,0,0,1-17.4-.67v8.46a14.06,14.06,0,0,1-28.12,0V24.41a14.12,14.12,0,0,1,14-14.17c7,0,10.81,4.82,12.06,6.41l.33.41,10.73,14.07,10-13.66c3.42-4.8,7.68-7.23,12.66-7.23a14,14,0,0,1,13.88,14v49a14.08,14.08,0,0,1-14.14,14Z"/><path class="cls-1" d="M309.66,73.24a2.06,2.06,0,1,1-4.12,0V24.41a2.15,2.15,0,0,1,2-2.17c1.28,0,1.95,1,2.85,2.1l20.48,26.85,19.5-26.7c.9-1.28,1.8-2.25,2.92-2.25a1.9,1.9,0,0,1,1.88,1.92V73.24a2,2,0,0,1-2,2h-.1a2,2,0,0,1-2-2V30l-19,25.57a1.74,1.74,0,0,1-1.35.68,1.57,1.57,0,0,1-1.2-.6L309.66,30Z"/><polygon class="cls-2" points="13.8 48.24 19.57 54.01 48.24 82.68 59.77 82.68 88.45 54.01 94.22 48.24 88.45 42.48 59.77 13.8 48.24 13.8 19.57 42.48 13.8 48.24"/><rect class="cls-3" x="42.58" y="36.81" width="22.87" height="22.87" transform="translate(-18.3 52.32) rotate(-45)"/><polyline class="cls-2" points="48.14 82.59 82.49 48.24 60.15 25.9 54.01 32.07"/><polyline class="cls-2" points="54.01 64.41 47.87 70.59 25.53 48.24 59.87 13.9"/><line class="cls-2" x1="70.18" y1="48.24" x2="82.49" y2="48.24"/><line class="cls-2" x1="37.84" y1="48.24" x2="25.53" y2="48.24"/><g class="cls-4"><g class="cls-4"><path class="cls-5" d="M147,38.07c0,8.17-5.62,16-18.67,16-2.48,0-5.7-.08-8.7-.3V73.24a2.07,2.07,0,0,1-4.13,0V24.57a2.19,2.19,0,0,1,2.18-2.18c3.37-.07,8.25-.15,10.65-.15C142.86,22.24,147,30.27,147,38.07ZM119.61,49.84c2.92.23,5.55.38,8.55.38,9.52,0,14.47-5,14.47-12.23,0-6.82-4-11.85-13.95-11.85-2.32,0-6.6.08-9.07.15Z"/></g><g class="cls-4"><path class="cls-5" d="M159.28,57l-7.35,17.1a1.91,1.91,0,0,1-1.73,1.12,1.94,1.94,0,0,1-1.95-2,2.94,2.94,0,0,1,.15-.75l21.45-49a2.35,2.35,0,0,1,2.1-1.5,2.38,2.38,0,0,1,2.18,1.5l21.37,48.9a2.44,2.44,0,0,1,.15.75,2.11,2.11,0,0,1-2,2,1.92,1.92,0,0,1-1.8-1.12L184.48,57Zm1.65-3.9h21.9l-11-25.35Z"/></g><g class="cls-4"><path class="cls-5" d="M235.93,71a1.89,1.89,0,0,1,1.87,2,1.86,1.86,0,0,1-1.87,1.88H208.18A2.18,2.18,0,0,1,206,72.71V24.19a2,2,0,0,1,2.18-2,2,2,0,0,1,1.95,2V71Z"/></g><g class="cls-4"><path class="cls-5" d="M266.83,21.72c14.93,0,26.33,11.25,26.33,26.92,0,15.45-11.4,26.92-26.33,26.92s-26.32-11.24-26.32-26.92C240.51,33.42,251.68,21.72,266.83,21.72Zm0,50c12.83,0,22-10,22-23,0-13.27-9.6-23-22-23s-22,9.75-22,23S254.46,71.67,266.83,71.67Z"/><path class="cls-5" d="M309.66,73.24a2.06,2.06,0,0,1-4.12,0V24.42a2.14,2.14,0,0,1,2-2.18c1.27,0,1.95,1,2.85,2.1l20.47,26.85,19.5-26.7c.9-1.27,1.8-2.25,2.93-2.25a1.9,1.9,0,0,1,1.87,2v49a2.06,2.06,0,0,1-4.12,0V30l-19,25.58a1.68,1.68,0,0,1-1.35.67,1.55,1.55,0,0,1-1.2-.6L309.66,30Z"/></g></g></svg>
